<svg height="160" viewBox="0 0 96 160" width="96" xmlns="http://www.w3.org/2000/svg"><g fill="#fc0404"><path d="m25.873 6.069c-2.619-2.623-6.103-4.067-9.814-4.069-7.648 0-13.873 6.224-13.875 13.874-.001 2.446.638 4.833 1.852 6.936l-1.969 7.19 7.355-1.929c2.026 1.106 4.308 1.688 6.63 1.689h.006c7.647 0 13.872-6.224 13.874-13.874.001-3.708-1.44-7.193-4.06-9.815zm-9.814 21.347h-.005c-2.069 0-4.099-.557-5.87-1.607l-.421-.25-4.365 1.145 1.165-4.256-.274-.436c-1.154-1.836-1.764-3.958-1.763-6.137.003-6.358 5.176-11.531 11.537-11.531 3.08.001 5.975 1.202 8.153 3.382 2.177 2.179 3.376 5.077 3.374 8.158-.003 6.359-5.176 11.532-11.532 11.532zm6.325-8.636c-.347-.174-2.051-1.012-2.369-1.128s-.549-.174-.78.174c-.231.347-.895 1.128-1.098 1.359-.202.232-.405.26-.751.086-.347-.174-1.464-.54-2.788-1.72-1.03-.919-1.726-2.054-1.929-2.402-.202-.347-.021-.535.152-.707.156-.156.347-.405.52-.607.174-.202.231-.347.347-.578.116-.232.058-.434-.029-.607-.087-.174-.78-1.88-1.069-2.574-.281-.676-.567-.584-.78-.595-.202-.01-.433-.012-.665-.012s-.607.086-.925.434c-.318.347-1.213 1.186-1.213 2.892s1.242 3.355 1.416 3.587 2.445 3.733 5.922 5.235c.827.357 1.473.571 1.977.73.83.264 1.586.227 2.183.138.666-.1 2.051-.839 2.34-1.649s.289-1.504.202-1.649-.318-.232-.665-.405z" fill-rule="evenodd"/><path d="m23.364 18.448c-.736 0-1.333-.595-1.333-1.33s.596-1.33 1.332-1.331 1.333.595 1.333 1.33c0 .734-.597 1.33-1.332 1.331m-14.728 0c-.736 0-1.333-.595-1.333-1.33s.596-1.33 1.332-1.331c.736 0 1.333.595 1.333 1.33 0 .734-.597 1.33-1.332 1.331m15.206-8.013 2.663-4.605c.153-.265.063-.603-.202-.756s-.604-.062-.757.202l-2.697 4.663c-2.062-.94-4.378-1.463-6.849-1.463s-4.787.524-6.849 1.463l-2.696-4.663c-.153-.265-.492-.355-.757-.203-.265.153-.356.491-.203.756l2.663 4.605c-4.573 2.484-7.7 7.106-8.158 12.566h32c-.458-5.46-3.585-10.082-8.158-12.565" transform="translate(32)"/><path d="m16 2c-7.732 0-14 6.268-14 14 0 6.566 4.52 12.075 10.618 13.588v-9.31h-2.887v-4.278h2.887v-1.843c0-4.765 2.156-6.974 6.835-6.974.887 0 2.417.174 3.043.348v3.878c-.33-.035-.904-.052-1.617-.052-2.296 0-3.183.87-3.183 3.13v1.513h4.573l-.786 4.278h-3.787v9.619c6.932-.837 12.304-6.74 12.304-13.897 0-7.732-6.268-14-14-14z" transform="translate(64)"/><path d="m26.413 6.536c-1.971-.902-4.052-1.543-6.189-1.904-.292.523-.557 1.061-.793 1.612-2.277-.343-4.592-.343-6.869 0-.236-.551-.5-1.089-.793-1.612-2.139.365-4.221 1.006-6.194 1.909-3.917 5.795-4.979 11.446-4.448 17.017 2.294 1.695 4.861 2.984 7.591 3.811.615-.827 1.158-1.704 1.626-2.622-.888-.332-1.744-.741-2.56-1.222.215-.156.425-.316.628-.472 4.806 2.26 10.37 2.26 15.177 0 .205.168.415.328.628.472-.817.483-1.676.892-2.565 1.225.467.918 1.011 1.794 1.626 2.619 2.732-.824 5.301-2.112 7.596-3.808.623-6.461-1.064-12.06-4.46-17.025zm-15.396 13.596c-1.479 0-2.702-1.343-2.702-2.994s1.18-3.006 2.697-3.006 2.73 1.354 2.704 3.006-1.192 2.994-2.699 2.994zm9.967 0c-1.482 0-2.699-1.343-2.699-2.994s1.18-3.006 2.699-3.006 2.723 1.354 2.697 3.006-1.189 2.994-2.697 2.994z" transform="translate(0 32)"/><path d="m16 2.345c7.735 0 14 6.265 14 14-.002 6.015-3.839 11.359-9.537 13.282-.7.14-.963-.298-.963-.665 0-.473.018-1.978.018-3.85 0-1.312-.437-2.152-.945-2.59 3.115-.35 6.388-1.54 6.388-6.912 0-1.54-.543-2.783-1.435-3.762.14-.35.63-1.785-.14-3.71 0 0-1.173-.385-3.85 1.435-1.12-.315-2.31-.472-3.5-.472s-2.38.157-3.5.472c-2.677-1.802-3.85-1.435-3.85-1.435-.77 1.925-.28 3.36-.14 3.71-.892.98-1.435 2.24-1.435 3.762 0 5.355 3.255 6.563 6.37 6.913-.403.35-.77.963-.893 1.872-.805.368-2.818.963-4.077-1.155-.263-.42-1.05-1.452-2.152-1.435-1.173.018-.472.665.017.927.595.332 1.277 1.575 1.435 1.978.28.787 1.19 2.293 4.707 1.645 0 1.173.018 2.275.018 2.607 0 .368-.263.787-.963.665-5.719-1.904-9.576-7.255-9.573-13.283 0-7.735 6.265-14 14-14z" transform="translate(32 32)"/><path d="m28.997 10.732c-.577-1.575-1.79-3.182-1.817-3.217-.405-.532-.847-1.033-1.32-1.498-.331-.341-.683-.659-1.052-.952-.225-.194-.459-.378-.701-.551-.431-.321-.902-.61-1.413-.862-.126-.066-.253-.13-.38-.191-1.002-.485-2.048-.868-3.129-1.106-.144-.032-.288-.061-.433-.088-.721-.137-1.455-.216-2.196-.231-.114-.002-.226-.003-.337-.003-.969-.001-1.925.097-2.831.287-1.989.419-3.738 1.277-4.844 2.351.002 0 .003-.002.005-.003-.002.002-.003.003-.005.005.002-.002.005-.004.008-.007.002-.001.005-.003.007-.004-.002.001-.004.003-.005.004.004-.003.009-.006.015-.01.828-.496 1.97-.898 2.786-1.103 4.157-1.016 8.225.258 10.911 2.828.577.552 1.095 1.171 1.515 1.852 1.713 2.779 1.551 6.273.215 8.333-.992 1.531-3.118 2.967-5.1 2.951.04.002.08.004.12.005-.065-.001-.13-.004-.196-.008-.002 0-.004 0-.006 0-.945-.057-1.762-.277-2.452-.614-3.148-1.536-3.635-5.496-1.394-7.401-.737-.158-2.123.152-3.087 1.59-.865 1.291-.817 3.285-.283 4.699-.325-.681-.563-1.374-.687-2.211-.676-4.552 2.301-8.45 5.121-9.547.068-.026.135-.051.203-.074s0 0 0 0c-.606-.528-1.57-.836-2.691-.889-2.542-.092-7.377 1.072-9.177 6.848.023-.969.682-3.287 1.448-4.716.002-.005.005-.009.007-.014-.323.167-.675.454-1.024.816-.698.726-1.382 1.755-1.788 2.732-.675 1.624-1.014 3.492-1.008 5.362.002.563.034 1.126.099 1.683.003.028.007.057.01.085.016.142.032.284.05.425.001.01.003.021.004.031 1.127 6.613 6.884 11.647 13.818 11.647 7.742 0 14.019-6.277 14.019-14.019 0-1.843-.356-3.604-1.003-5.216z" transform="translate(64 32)"/><path d="m26.111 3h-20.222c-1.595 0-2.889 1.293-2.889 2.889v20.222c0 1.595 1.293 2.889 2.889 2.889h20.222c1.595 0 2.889-1.293 2.889-2.889v-20.222c0-1.595-1.293-2.889-2.889-2.889zm-15.25 22.389h-3.877v-12.519h3.877zm-1.957-14.158c-1.267 0-2.293-1.034-2.293-2.31s1.026-2.31 2.293-2.31 2.292 1.034 2.292 2.31-1.026 2.31-2.292 2.31zm16.485 14.158h-3.858v-6.571c0-1.802-.685-2.809-2.111-2.809-1.551 0-2.362 1.048-2.362 2.809v6.571h-3.718v-12.519h3.718v1.686s1.118-2.069 3.775-2.069 4.556 1.621 4.556 4.975v7.926z" fill-rule="evenodd" transform="translate(0 64)"/><path d="m10.202 2.098c-1.49.07-2.507.308-3.396.657-.92.359-1.7.84-2.477 1.619-.776.779-1.254 1.56-1.61 2.481-.345.891-.578 1.909-.644 3.4-.066 1.49-.08 1.97-.073 5.771s.024 4.278.096 5.772c.071 1.489.308 2.506.657 3.396.359.92.84 1.7 1.619 2.477.779.776 1.559 1.253 2.483 1.61.89.344 1.909.579 3.399.644s1.97.08 5.771.073 4.279-.024 5.773-.095 2.505-.309 3.395-.657c.92-.36 1.701-.84 2.477-1.62s1.254-1.561 1.609-2.483c.345-.89.579-1.909.644-3.398.065-1.494.081-1.971.073-5.773s-.024-4.278-.095-5.771-.308-2.507-.657-3.397c-.36-.92-.84-1.7-1.619-2.477s-1.561-1.254-2.483-1.609c-.891-.345-1.909-.58-3.399-.644s-1.97-.081-5.772-.074-4.278.024-5.771.096m.164 25.309c-1.365-.059-2.106-.286-2.6-.476-.654-.252-1.12-.557-1.612-1.044s-.795-.955-1.05-1.608c-.192-.494-.423-1.234-.487-2.599-.069-1.475-.084-1.918-.092-5.656s.006-4.18.071-5.656c.058-1.364.286-2.106.476-2.6.252-.655.556-1.12 1.044-1.612s.955-.795 1.608-1.05c.493-.193 1.234-.422 2.598-.487 1.476-.07 1.919-.084 5.656-.092s4.181.006 5.658.071c1.364.059 2.106.285 2.599.476.654.252 1.12.555 1.612 1.044s.795.954 1.051 1.609c.193.492.422 1.232.486 2.597.07 1.476.086 1.919.093 5.656s-.006 4.181-.071 5.656c-.06 1.365-.286 2.106-.476 2.601-.252.654-.556 1.12-1.045 1.612s-.955.795-1.608 1.05c-.493.192-1.234.422-2.597.487-1.476.069-1.919.084-5.657.092s-4.18-.007-5.656-.071m11.412-18.888c.002.928.755 1.679 1.683 1.677s1.679-.755 1.677-1.683-.755-1.679-1.683-1.677c-.928.002-1.678.755-1.677 1.683m-12.967 7.496c.008 3.97 3.232 7.182 7.202 7.174s7.183-3.232 7.176-7.202c-.008-3.97-3.233-7.183-7.203-7.175s-7.182 3.233-7.174 7.203m2.522-.005c-.005-2.577 2.08-4.671 4.658-4.676 2.577-.005 4.671 2.08 4.676 4.658.005 2.577-2.08 4.671-4.658 4.676-2.577.005-4.671-2.079-4.676-4.656" transform="translate(32 64)"/><path d="m16 2c-7.887 0-14 5.777-14 13.58 0 4.082 1.673 7.608 4.397 10.044.229.205.367.491.376.798l.076 2.49c.024.794.845 1.311 1.572.99l2.779-1.227c.236-.104.5-.123.748-.055 1.277.351 2.636.538 4.053.538 7.887 0 14-5.777 14-13.58s-6.114-13.578-14.001-13.578zm8.407 10.449-4.113 6.525c-.654 1.038-2.055 1.296-3.037.56l-3.271-2.453c-.3-.225-.713-.224-1.012.003l-4.418 3.353c-.59.447-1.359-.258-.965-.884l4.113-6.525c.654-1.038 2.055-1.296 3.037-.56l3.271 2.453c.3.225.713.224 1.012-.003l4.417-3.353c.59-.447 1.359.258.965.884z" transform="translate(64 64)"/><g transform="translate(0 96)"><path d="m30 16c0 4.147-1.803 7.872-4.669 10.436-3.591 1.75-6.938.525-8.046-.239 3.527-.774 6.192-5.039 6.192-10.197s-2.665-9.423-6.192-10.197c1.108-.764 4.455-1.989 8.046-.239 2.865 2.564 4.669 6.289 4.669 10.436z"/><path d="m11.392 8.111c-1.548 1.827-2.551 4.528-2.619 7.56v.66c.068 3.031 1.071 5.733 2.619 7.56 2.008 2.608 4.994 4.262 8.328 4.262 2.051 0 3.969-.626 5.611-1.714-2.478 2.214-5.747 3.561-9.331 3.561-.223 0-.445-.006-.667-.016-7.423-.348-13.333-6.476-13.333-13.984 0-7.732 6.269-14 14-14h.052c3.564.013 6.814 1.358 9.278 3.563-1.641-1.088-3.56-1.715-5.611-1.715-3.333 0-6.318 1.654-8.326 4.262z"/></g><path d="m16.057 24.427c-4.651 0-6.776-2.369-6.776-4.107 0-.415.17-.811.47-1.096.301-.285.706-.434 1.12-.411 1.991 0 1.471 2.987 5.186 2.987 1.899 0 3.015-1.143 3.015-2.217 0-.645-.369-1.383-1.623-1.678l-4.149-1.046c-3.333-.848-3.914-2.701-3.914-4.421 0-3.568 3.264-4.859 6.371-4.859 2.863 0 6.265 1.581 6.265 3.72 0 .922-.77 1.415-1.664 1.415-1.701 0-1.415-2.388-4.836-2.388-1.701 0-2.595.797-2.595 1.913s1.323 1.494 2.485 1.747l3.061.691c3.356.756 4.25 2.724 4.25 4.61 0 2.9-2.245 5.14-6.67 5.14m12.848-6.136c.133-.761.199-1.532.198-2.305.016-3.881-1.689-7.569-4.656-10.071s-6.891-3.559-10.713-2.887c-1.175-.676-2.507-1.031-3.863-1.028-2.783.017-5.348 1.508-6.739 3.918s-1.4 5.377-.024 7.795c-.768 4.221.577 8.551 3.603 11.592 3.025 3.042 7.348 4.411 11.573 3.666 1.173.676 2.504 1.03 3.858 1.028 2.781-.018 5.345-1.509 6.736-3.917s1.401-5.374.027-7.792" transform="translate(32 96)"/><path d="m22.7 14.977c-.121-.058-.243-.113-.367-.167-.216-3.982-2.392-6.262-6.046-6.285-.017 0-.033 0-.05 0-2.185 0-4.003.933-5.122 2.63l2.009 1.378c.836-1.268 2.147-1.538 3.113-1.538h.033c1.203.008 2.111.357 2.698 1.04.428.497.714 1.183.855 2.049-1.067-.181-2.22-.237-3.453-.166-3.474.2-5.707 2.226-5.557 5.041.076 1.428.788 2.656 2.003 3.459 1.028.678 2.351 1.01 3.727.935 1.817-.1 3.242-.793 4.236-2.06.755-.963 1.233-2.21 1.444-3.781.866.523 1.507 1.21 1.862 2.037.603 1.405.638 3.714-1.246 5.596-1.651 1.649-3.635 2.363-6.634 2.385-3.326-.025-5.842-1.091-7.478-3.171-1.532-1.947-2.323-4.759-2.353-8.359.03-3.599.821-6.412 2.353-8.359 1.636-2.079 4.151-3.146 7.478-3.171 3.35.025 5.91 1.097 7.608 3.186.833 1.025 1.461 2.313 1.874 3.815l2.355-.628c-.502-1.849-1.291-3.443-2.365-4.764-2.177-2.679-5.361-4.051-9.464-4.08h-.016c-4.094.028-7.243 1.406-9.358 4.095-1.882 2.393-2.853 5.722-2.886 9.895v.01s0 .01 0 .01c.033 4.173 1.004 7.503 2.886 9.895 2.115 2.689 5.264 4.067 9.358 4.095h.016c3.64-.025 6.206-.978 8.32-3.09 2.765-2.763 2.682-6.226 1.771-8.352-.654-1.525-1.901-2.763-3.605-3.581zm-6.285 5.909c-1.522.086-3.104-.598-3.182-2.061-.058-1.085.772-2.296 3.276-2.441.287-.017.568-.025.844-.025.909 0 1.76.088 2.533.257-.288 3.602-1.98 4.187-3.471 4.269z" transform="translate(64 96)"/><path d="m18.42 14.009 9.471-11.009h-2.244l-8.224 9.559-6.568-9.559h-7.575l9.932 14.455-9.932 11.545h2.244l8.684-10.095 6.936 10.095h7.576l-10.301-14.991zm-3.074 3.573-1.006-1.439-8.007-11.453h3.447l6.462 9.243 1.006 1.439 8.4 12.015h-3.447l-6.854-9.804z" transform="translate(0 128)"/><path d="m31.331 8.248c-.368-1.386-1.452-2.477-2.829-2.848-2.496-.673-12.502-.673-12.502-.673s-10.007 0-12.502.673c-1.377.37-2.461 1.462-2.829 2.848-.669 2.512-.669 7.752-.669 7.752s0 5.241.669 7.752c.368 1.386 1.452 2.477 2.829 2.847 2.496.673 12.502.673 12.502.673s10.007 0 12.502-.673c1.377-.37 2.461-1.462 2.829-2.847.669-2.512.669-7.752.669-7.752s0-5.24-.669-7.752zm-18.604 12.51v-9.516l8.364 4.758z" transform="translate(32 128)"/></g></svg>